<svg xmlns="http://www.w3.org/2000/svg" width="22" height="23" viewBox="0 0 22 23"><g><g><path fill="#fff" d="M-.062.812h21.468v22.282H-.062z"/></g><g><path d="M13.939 11.94c0 1.876-1.465 3.397-3.273 3.397-1.807 0-3.273-1.52-3.273-3.396 0-1.875 1.464-3.396 3.273-3.396 1.807 0 3.273 1.52 3.273 3.396zm-1.149 0c0-1.217-.95-2.204-2.124-2.204-1.174 0-2.125.987-2.125 2.205s.95 2.204 2.125 2.204c1.174 0 2.124-.986 2.124-2.204zm4.211-2.726c.053 1.219.055 4.235 0 5.454-.087 1.967-.979 3.064-2.16 3.54-.87.349-1.717.347-4.175.347-2.396 0-4.073.168-5.304-1.11-1.208-1.254-1.07-2.93-1.07-5.504 0-2.516-.157-4.232 1.07-5.504.733-.762 1.644-1.02 2.676-1.07 1.175-.055 4.082-.058 5.255 0 2.401.114 3.603 1.524 3.708 3.847zm-1.11 2.727c0-1.766-.007-1.976-.037-2.673-.133-3.059-2.356-2.751-5.188-2.751l-.024-.016c-1.705 0-1.904.008-2.581.033-2.947.157-2.646 2.351-2.646 5.399 0 2.252-.162 3.737.734 4.662.777.81 1.843.769 4.5.769 2.582 0 3.698.074 4.502-.76.79-.825.74-1.937.74-4.663zm-1.058-3.53c0 .438-.343.793-.765.793s-.765-.356-.765-.793c0-.438.343-.794.765-.794.421 0 .765.356.765.794z"/></g></g></svg>