<svg xmlns="http://www.w3.org/2000/svg" width="22" height="23" viewBox="0 0 22 23"><g><g><path fill="#fff" d="M.531.812H22v22.282H.531z"/></g><g><path d="M16.607 9.358c.532-.39.98-.877 1.343-1.438a5.46 5.46 0 0 1-1.544.437c.556-.342.98-.882 1.18-1.53-.518.319-1.09.544-1.7.67a2.645 2.645 0 0 0-1.957-.876c-1.484 0-2.678 1.244-2.678 2.77 0 .22.018.43.062.631-2.228-.112-4.2-1.215-5.524-2.897-.231.415-.367.89-.367 1.4 0 .959.477 1.809 1.19 2.301a2.582 2.582 0 0 1-1.21-.34v.03c0 1.346.928 2.463 2.146 2.721a2.586 2.586 0 0 1-.702.091c-.172 0-.345-.01-.507-.047.347 1.097 1.333 1.903 2.504 1.93a5.276 5.276 0 0 1-3.965 1.142 7.37 7.37 0 0 0 4.112 1.243c4.729 0 7.811-4.077 7.617-8.238z"/></g></g></svg>