<svg xmlns="http://www.w3.org/2000/svg" width="38" height="38" viewBox="0 0 38 38"><g><g><path fill="#484f5b" d="M.938 0H38v38H.937z"/></g><g><path fill="#fff" d="M28.69 14.582a9.345 9.345 0 0 0 2.318-2.453 9.493 9.493 0 0 1-2.666.745 4.686 4.686 0 0 0 2.036-2.61 9.16 9.16 0 0 1-2.934 1.144 4.59 4.59 0 0 0-3.38-1.496c-2.56 0-4.623 2.123-4.623 4.726 0 .374.031.734.107 1.077-3.846-.192-7.25-2.074-9.537-4.942a4.84 4.84 0 0 0-.634 2.388c0 1.636.825 3.086 2.056 3.927a4.5 4.5 0 0 1-2.09-.583v.052c0 2.296 1.603 4.204 3.706 4.643a4.49 4.49 0 0 1-1.213.156c-.296 0-.595-.017-.875-.08.599 1.87 2.301 3.246 4.323 3.291a9.178 9.178 0 0 1-5.737 2.015 8.66 8.66 0 0 1-1.107-.064 12.838 12.838 0 0 0 7.098 2.12c8.164 0 13.486-6.956 13.151-14.056z"/></g></g></svg>